<svg xmlns="http://www.w3.org/2000/svg" viewBox="0 0 64 64">
<title>Adele's Recipe Book</title>
<rect width="64" height="64" rx="14" fill="#2f5d46"/>
<circle cx="32" cy="32" r="24" fill="#fbfaf5"/>
<circle cx="32" cy="32" r="22" fill="none" stroke="#d9a42b" stroke-width="2"/>
<path d="M21 43L35.1 28.9" stroke="#2f5d46" stroke-width="2.2" stroke-linecap="round"/><ellipse cx="23.3" cy="34.3" rx="6.5" ry="2.2" transform="rotate(-95 23.3 34.3)" fill="#5d8a66"/><ellipse cx="29.7" cy="40.7" rx="6.5" ry="2.2" transform="rotate(5 29.7 40.7)" fill="#477552"/><ellipse cx="27.6" cy="30.8" rx="5.8" ry="2.2" transform="rotate(-95 27.6 30.8)" fill="#477552"/><ellipse cx="33.2" cy="36.4" rx="5.8" ry="2.2" transform="rotate(5 33.2 36.4)" fill="#5d8a66"/><ellipse cx="31.9" cy="27.2" rx="5" ry="2.2" transform="rotate(-95 31.9 27.2)" fill="#5d8a66"/><ellipse cx="36.8" cy="32.1" rx="5" ry="2.2" transform="rotate(5 36.8 32.1)" fill="#477552"/><ellipse cx="37.5" cy="26.5" rx="4.2" ry="2.2" transform="rotate(-45 37.5 26.5)" fill="#5d8a66"/>
</svg>
